<?xml version="1.0" encoding="UTF-8" standalone="no"?>
<!-- Created with Inkscape (http://www.inkscape.org/) -->

<svg
   width="423.03586"
   height="177.51099"
   viewBox="0 0 111.92824 46.966448"
   version="1.1"
   id="svg1"
   inkscape:version="1.3.1 (91b66b0783, 2023-11-16)"
   xmlns:inkscape="http://www.inkscape.org/namespaces/inkscape"
   xmlns:sodipodi="http://sodipodi.sourceforge.net/DTD/sodipodi-0.dtd"
   xmlns="http://www.w3.org/2000/svg"
   xmlns:svg="http://www.w3.org/2000/svg">
  <sodipodi:namedview
     id="namedview1"
     pagecolor="#ffffff"
     bordercolor="#000000"
     borderopacity="0.25"
     inkscape:showpageshadow="2"
     inkscape:pageopacity="0.0"
     inkscape:pagecheckerboard="true"
     inkscape:deskcolor="#d1d1d1"
     inkscape:document-units="px" />
  <defs
     id="defs1" />
  <g
     inkscape:label="Layer 1"
     inkscape:groupmode="layer"
     id="layer1"
     transform="translate(-310.21042,-160.87674)">
    <rect
       style="fill:#000000;fill-opacity:0.719512;stroke-width:1.92197"
       id="rect8"
       width="111.92825"
       height="46.966446"
       x="310.21042"
       y="160.87674"
       ry="2.3180819"
       inkscape:export-filename="play_button.svg"
       inkscape:export-xdpi="96"
       inkscape:export-ydpi="96" />
    <rect
       style="fill:#009acc;fill-opacity:1;stroke-width:1.8827"
       id="rect3"
       width="110.90634"
       height="45.482105"
       x="310.72137"
       y="161.61891"
       ry="2.2448206" />
    <path
       id="rect1"
       style="fill:#00769b;fill-opacity:1;stroke-width:1.8827"
       d="m 310.72134,203.2687 v 1.5875 c 0,1.24363 1.0012,2.24482 2.24483,2.24482 h 106.41676 c 1.24363,0 2.24482,-1.00119 2.24482,-2.24482 v -1.5875 c 0,1.24363 -1.00119,2.24482 -2.24482,2.24482 H 312.96617 c -1.24363,0 -2.24483,-1.00119 -2.24483,-2.24482 z" />
    <path
       id="path5"
       style="fill:#65daff;fill-opacity:1;stroke-width:1.8827"
       d="m 310.72134,165.45123 v -1.5875 c 0,-1.24363 1.0012,-2.24482 2.24483,-2.24482 h 106.41676 c 1.24363,0 2.24482,1.00119 2.24482,2.24482 v 1.5875 c 0,-1.24363 -1.00119,-2.24482 -2.24482,-2.24482 H 312.96617 c -1.24363,0 -2.24483,1.00119 -2.24483,2.24482 z" />
    <rect
       style="fill:#06c2ff;fill-opacity:1;stroke-width:11.4457"
       id="rect5"
       width="107.58264"
       height="40.015495"
       x="312.38321"
       y="164.35222"
       ry="1.6514782" />
    <path
       id="rect7"
       style="fill:#00ade5;fill-opacity:1;stroke-width:11.4457"
       d="m 312.38324,185.5146 v 17.20153 c 0,0.91492 0.73666,1.65158 1.65158,1.65158 h 104.27942 c 0.91492,0 1.65158,-0.73666 1.65158,-1.65158 V 185.5146 Z" />
    <circle
       style="fill:#ffffff;fill-opacity:1;stroke-width:3.96875"
       id="path8"
       cx="417.36075"
       cy="166.72701"
       r="1.48434" />
    <text
       xml:space="preserve"
       style="font-size:25.4px;font-family:satoshi;-inkscape-font-specification:satoshi;fill:#ffffff;fill-opacity:1;stroke:#000000;stroke-width:0.264583;stroke-dasharray:none"
       x="330.82785"
       y="193.66173"
       id="text8"><tspan
         sodipodi:role="line"
         id="tspan8"
         style="font-style:normal;font-variant:normal;font-weight:normal;font-stretch:normal;font-family:Symtext;-inkscape-font-specification:Symtext;fill:#ffffff;stroke:#000000;stroke-width:0.264583;stroke-dasharray:none"
         x="330.82785"
         y="193.66173">PLAY</tspan></text>
  </g>
</svg>
